STARTFONT 2.1
COMMENT
COMMENT Converted from OpenType font "3x5-dot-matrix.ttf" by "otf2bdf 3.0".
COMMENT
FONT -FreeType-3x5 Dot Matrix-Medium-R-Normal--7-50-100-100-P-41-ISO10646-1
SIZE 5 100 100
FONTBOUNDINGBOX 5 10 0 0
STARTPROPERTIES 19
FOUNDRY "FreeType"
FAMILY_NAME "3x5 Dot Matrix"
WEIGHT_NAME "Medium"
SLANT "R"
SETWIDTH_NAME "Normal"
ADD_STYLE_NAME ""
PIXEL_SIZE 7
POINT_SIZE 50
RESOLUTION_X 100
RESOLUTION_Y 100
SPACING "P"
AVERAGE_WIDTH 41
CHARSET_REGISTRY "ISO10646"
CHARSET_ENCODING "1"
FONT_ASCENT 8
FONT_DESCENT 0
COPYRIGHT "Copyright GuyStruct 2017"
_OTF_FONTFILE "3x5-dot-matrix.ttf"
_OTF_PSNAME "3x5DotMatrix"
ENDPROPERTIES
CHARS 129
STARTCHAR 0020
ENCODING 32
SWIDTH 720 0
DWIDTH 5 0
BBX 0 0 0 0
BITMAP
ENDCHAR
STARTCHAR 0021
ENCODING 33
SWIDTH 864 0
DWIDTH 6 0
BBX 1 8 2 0
BITMAP
80
80
80
80
80
00
80
80
ENDCHAR
STARTCHAR 0022
ENCODING 34
SWIDTH 720 0
DWIDTH 5 0
BBX 4 3 0 5
BITMAP
90
90
90
ENDCHAR
STARTCHAR 0023
ENCODING 35
SWIDTH 720 0
DWIDTH 5 0
BBX 4 8 0 0
BITMAP
90
90
F0
F0
90
F0
F0
90
ENDCHAR
STARTCHAR 0024
ENCODING 36
SWIDTH 864 0
DWIDTH 6 0
BBX 5 8 0 0
BITMAP
20
20
38
38
20
E0
E0
20
ENDCHAR
STARTCHAR 0025
ENCODING 37
SWIDTH 720 0
DWIDTH 5 0
BBX 4 8 0 0
BITMAP
B0
B0
30
40
40
80
B0
B0
ENDCHAR
STARTCHAR 0026
ENCODING 38
SWIDTH 720 0
DWIDTH 5 0
BBX 4 8 0 0
BITMAP
40
40
B0
F0
F0
B0
F0
70
ENDCHAR
STARTCHAR 0027
ENCODING 39
SWIDTH 864 0
DWIDTH 6 0
BBX 1 3 2 5
BITMAP
80
80
80
ENDCHAR
STARTCHAR 0028
ENCODING 40
SWIDTH 720 0
DWIDTH 5 0
BBX 4 8 0 0
BITMAP
70
70
80
80
80
80
F0
70
ENDCHAR
STARTCHAR 0029
ENCODING 41
SWIDTH 720 0
DWIDTH 5 0
BBX 4 8 0 0
BITMAP
E0
E0
10
10
10
10
F0
E0
ENDCHAR
STARTCHAR 002A
ENCODING 42
SWIDTH 864 0
DWIDTH 6 0
BBX 1 2 2 6
BITMAP
80
80
ENDCHAR
STARTCHAR 002B
ENCODING 43
SWIDTH 720 0
DWIDTH 5 0
BBX 4 5 0 1
BITMAP
20
20
F0
F0
20
ENDCHAR
STARTCHAR 002C
ENCODING 44
SWIDTH 864 0
DWIDTH 6 0
BBX 3 3 0 0
BITMAP
E0
E0
20
ENDCHAR
STARTCHAR 002D
ENCODING 45
SWIDTH 720 0
DWIDTH 5 0
BBX 4 2 0 3
BITMAP
F0
F0
ENDCHAR
STARTCHAR 002E
ENCODING 46
SWIDTH 864 0
DWIDTH 6 0
BBX 1 2 2 0
BITMAP
80
80
ENDCHAR
STARTCHAR 002F
ENCODING 47
SWIDTH 720 0
DWIDTH 5 0
BBX 4 8 0 0
BITMAP
30
30
30
40
40
80
80
80
ENDCHAR
STARTCHAR 0030
ENCODING 48
SWIDTH 720 0
DWIDTH 5 0
BBX 4 8 0 0
BITMAP
F0
F0
90
90
90
90
F0
F0
ENDCHAR
STARTCHAR 0031
ENCODING 49
SWIDTH 720 0
DWIDTH 5 0
BBX 4 8 0 0
BITMAP
E0
E0
20
20
20
20
F0
F0
ENDCHAR
STARTCHAR 0032
ENCODING 50
SWIDTH 720 0
DWIDTH 5 0
BBX 4 8 0 0
BITMAP
F0
F0
10
F0
F0
80
F0
F0
ENDCHAR
STARTCHAR 0033
ENCODING 51
SWIDTH 720 0
DWIDTH 5 0
BBX 4 8 0 0
BITMAP
F0
F0
10
F0
F0
10
F0
F0
ENDCHAR
STARTCHAR 0034
ENCODING 52
SWIDTH 720 0
DWIDTH 5 0
BBX 4 8 0 0
BITMAP
10
10
70
F0
90
F0
F0
10
ENDCHAR
STARTCHAR 0035
ENCODING 53
SWIDTH 720 0
DWIDTH 5 0
BBX 4 8 0 0
BITMAP
F0
F0
80
F0
F0
10
F0
F0
ENDCHAR
STARTCHAR 0036
ENCODING 54
SWIDTH 720 0
DWIDTH 5 0
BBX 4 8 0 0
BITMAP
40
40
80
F0
F0
B0
F0
F0
ENDCHAR
STARTCHAR 0037
ENCODING 55
SWIDTH 720 0
DWIDTH 5 0
BBX 4 8 0 0
BITMAP
F0
F0
30
70
40
80
80
80
ENDCHAR
STARTCHAR 0038
ENCODING 56
SWIDTH 720 0
DWIDTH 5 0
BBX 4 8 0 0
BITMAP
F0
F0
90
F0
F0
90
F0
F0
ENDCHAR
STARTCHAR 0039
ENCODING 57
SWIDTH 720 0
DWIDTH 5 0
BBX 4 8 0 0
BITMAP
F0
F0
B0
F0
F0
30
70
40
ENDCHAR
STARTCHAR 003A
ENCODING 58
SWIDTH 864 0
DWIDTH 6 0
BBX 1 5 2 1
BITMAP
80
80
00
80
80
ENDCHAR
STARTCHAR 003B
ENCODING 59
SWIDTH 864 0
DWIDTH 6 0
BBX 3 6 0 0
BITMAP
20
20
00
E0
E0
20
ENDCHAR
STARTCHAR 003C
ENCODING 60
SWIDTH 720 0
DWIDTH 5 0
BBX 2 5 0 0
BITMAP
40
40
80
C0
40
ENDCHAR
STARTCHAR 003D
ENCODING 61
SWIDTH 720 0
DWIDTH 5 0
BBX 4 5 0 1
BITMAP
F0
F0
00
F0
F0
ENDCHAR
STARTCHAR 003E
ENCODING 62
SWIDTH 720 0
DWIDTH 5 0
BBX 2 5 2 0
BITMAP
80
80
40
C0
80
ENDCHAR
STARTCHAR 003F
ENCODING 63
SWIDTH 720 0
DWIDTH 5 0
BBX 4 8 0 0
BITMAP
F0
F0
10
30
30
00
20
20
ENDCHAR
STARTCHAR 0040
ENCODING 64
SWIDTH 720 0
DWIDTH 5 0
BBX 4 8 0 0
BITMAP
70
70
90
F0
F0
00
F0
F0
ENDCHAR
STARTCHAR 0041
ENCODING 65
SWIDTH 720 0
DWIDTH 5 0
BBX 4 8 0 0
BITMAP
F0
F0
90
F0
F0
90
90
90
ENDCHAR
STARTCHAR 0042
ENCODING 66
SWIDTH 720 0
DWIDTH 5 0
BBX 4 8 0 0
BITMAP
E0
E0
90
F0
F0
90
F0
E0
ENDCHAR
STARTCHAR 0043
ENCODING 67
SWIDTH 720 0
DWIDTH 5 0
BBX 4 8 0 0
BITMAP
F0
F0
80
80
80
80
F0
F0
ENDCHAR
STARTCHAR 0044
ENCODING 68
SWIDTH 720 0
DWIDTH 5 0
BBX 4 8 0 0
BITMAP
E0
E0
90
90
90
90
F0
E0
ENDCHAR
STARTCHAR 0045
ENCODING 69
SWIDTH 720 0
DWIDTH 5 0
BBX 4 8 0 0
BITMAP
F0
F0
80
F0
F0
80
F0
F0
ENDCHAR
STARTCHAR 0046
ENCODING 70
SWIDTH 720 0
DWIDTH 5 0
BBX 4 8 0 0
BITMAP
F0
F0
80
F0
F0
80
80
80
ENDCHAR
STARTCHAR 0047
ENCODING 71
SWIDTH 720 0
DWIDTH 5 0
BBX 4 8 0 0
BITMAP
F0
F0
80
90
90
90
F0
F0
ENDCHAR
STARTCHAR 0048
ENCODING 72
SWIDTH 720 0
DWIDTH 5 0
BBX 4 8 0 0
BITMAP
90
90
90
F0
F0
90
90
90
ENDCHAR
STARTCHAR 0049
ENCODING 73
SWIDTH 720 0
DWIDTH 5 0
BBX 4 8 0 0
BITMAP
F0
F0
20
20
20
20
F0
F0
ENDCHAR
STARTCHAR 004A
ENCODING 74
SWIDTH 720 0
DWIDTH 5 0
BBX 4 8 0 0
BITMAP
10
10
10
10
10
10
F0
F0
ENDCHAR
STARTCHAR 004B
ENCODING 75
SWIDTH 720 0
DWIDTH 5 0
BBX 4 8 0 0
BITMAP
90
90
90
E0
E0
90
90
90
ENDCHAR
STARTCHAR 004C
ENCODING 76
SWIDTH 720 0
DWIDTH 5 0
BBX 4 8 0 0
BITMAP
80
80
80
80
80
80
F0
F0
ENDCHAR
STARTCHAR 004D
ENCODING 77
SWIDTH 720 0
DWIDTH 5 0
BBX 4 8 0 0
BITMAP
90
90
F0
F0
F0
90
90
90
ENDCHAR
STARTCHAR 004E
ENCODING 78
SWIDTH 720 0
DWIDTH 5 0
BBX 4 8 0 0
BITMAP
F0
F0
90
90
90
90
90
90
ENDCHAR
STARTCHAR 004F
ENCODING 79
SWIDTH 720 0
DWIDTH 5 0
BBX 4 8 0 0
BITMAP
40
40
B0
B0
B0
B0
F0
40
ENDCHAR
STARTCHAR 0050
ENCODING 80
SWIDTH 720 0
DWIDTH 5 0
BBX 4 8 0 0
BITMAP
F0
F0
90
F0
F0
80
80
80
ENDCHAR
STARTCHAR 0051
ENCODING 81
SWIDTH 720 0
DWIDTH 5 0
BBX 4 8 0 0
BITMAP
F0
F0
90
F0
F0
10
10
10
ENDCHAR
STARTCHAR 0052
ENCODING 82
SWIDTH 720 0
DWIDTH 5 0
BBX 4 8 0 0
BITMAP
F0
F0
90
F0
E0
90
90
90
ENDCHAR
STARTCHAR 0053
ENCODING 83
SWIDTH 720 0
DWIDTH 5 0
BBX 4 8 0 0
BITMAP
70
70
80
C0
40
30
F0
C0
ENDCHAR
STARTCHAR 0054
ENCODING 84
SWIDTH 720 0
DWIDTH 5 0
BBX 4 8 0 0
BITMAP
F0
F0
20
20
20
20
20
20
ENDCHAR
STARTCHAR 0055
ENCODING 85
SWIDTH 720 0
DWIDTH 5 0
BBX 4 8 0 0
BITMAP
90
90
90
90
90
90
F0
F0
ENDCHAR
STARTCHAR 0056
ENCODING 86
SWIDTH 720 0
DWIDTH 5 0
BBX 4 8 0 0
BITMAP
90
90
90
90
90
E0
E0
80
ENDCHAR
STARTCHAR 0057
ENCODING 87
SWIDTH 720 0
DWIDTH 5 0
BBX 4 8 0 0
BITMAP
90
90
90
F0
F0
F0
90
90
ENDCHAR
STARTCHAR 0058
ENCODING 88
SWIDTH 720 0
DWIDTH 5 0
BBX 4 8 0 0
BITMAP
B0
B0
B0
40
40
B0
B0
B0
ENDCHAR
STARTCHAR 0059
ENCODING 89
SWIDTH 720 0
DWIDTH 5 0
BBX 4 8 0 0
BITMAP
90
90
90
F0
F0
10
F0
F0
ENDCHAR
STARTCHAR 005A
ENCODING 90
SWIDTH 720 0
DWIDTH 5 0
BBX 4 8 0 0
BITMAP
F0
F0
30
70
40
80
F0
F0
ENDCHAR
STARTCHAR 005B
ENCODING 91
SWIDTH 864 0
DWIDTH 6 0
BBX 3 8 2 0
BITMAP
E0
E0
80
80
80
80
E0
E0
ENDCHAR
STARTCHAR 005C
ENCODING 92
SWIDTH 720 0
DWIDTH 5 0
BBX 4 8 0 0
BITMAP
80
80
80
40
40
30
30
30
ENDCHAR
STARTCHAR 005D
ENCODING 93
SWIDTH 864 0
DWIDTH 6 0
BBX 3 8 0 0
BITMAP
E0
E0
20
20
20
20
E0
E0
ENDCHAR
STARTCHAR 005E
ENCODING 94
SWIDTH 720 0
DWIDTH 5 0
BBX 4 3 0 5
BITMAP
40
F0
B0
ENDCHAR
STARTCHAR 005F
ENCODING 95
SWIDTH 720 0
DWIDTH 5 0
BBX 4 2 0 0
BITMAP
F0
F0
ENDCHAR
STARTCHAR 0060
ENCODING 96
SWIDTH 720 0
DWIDTH 5 0
BBX 2 3 0 5
BITMAP
80
C0
40
ENDCHAR
STARTCHAR 0061
ENCODING 97
SWIDTH 720 0
DWIDTH 5 0
BBX 4 6 0 0
BITMAP
70
F0
90
90
F0
F0
ENDCHAR
STARTCHAR 0062
ENCODING 98
SWIDTH 720 0
DWIDTH 5 0
BBX 4 8 0 0
BITMAP
80
80
F0
F0
90
90
F0
F0
ENDCHAR
STARTCHAR 0063
ENCODING 99
SWIDTH 720 0
DWIDTH 5 0
BBX 4 6 0 0
BITMAP
F0
F0
80
80
F0
F0
ENDCHAR
STARTCHAR 0064
ENCODING 100
SWIDTH 720 0
DWIDTH 5 0
BBX 4 8 0 0
BITMAP
10
10
F0
F0
90
90
F0
F0
ENDCHAR
STARTCHAR 0065
ENCODING 101
SWIDTH 720 0
DWIDTH 5 0
BBX 4 6 0 0
BITMAP
70
F0
F0
E0
70
70
ENDCHAR
STARTCHAR 0066
ENCODING 102
SWIDTH 720 0
DWIDTH 5 0
BBX 4 8 0 0
BITMAP
30
30
20
F0
F0
20
20
20
ENDCHAR
STARTCHAR 0067
ENCODING 103
SWIDTH 720 0
DWIDTH 5 0
BBX 4 6 0 0
BITMAP
F0
F0
80
90
F0
F0
ENDCHAR
STARTCHAR 0068
ENCODING 104
SWIDTH 720 0
DWIDTH 5 0
BBX 4 8 0 0
BITMAP
80
80
F0
F0
90
90
90
90
ENDCHAR
STARTCHAR 0069
ENCODING 105
SWIDTH 720 0
DWIDTH 5 0
BBX 4 6 0 0
BITMAP
F0
F0
20
20
F0
F0
ENDCHAR
STARTCHAR 006A
ENCODING 106
SWIDTH 720 0
DWIDTH 5 0
BBX 4 6 0 0
BITMAP
10
10
10
10
F0
F0
ENDCHAR
STARTCHAR 006B
ENCODING 107
SWIDTH 720 0
DWIDTH 5 0
BBX 4 6 0 0
BITMAP
90
F0
E0
90
90
90
ENDCHAR
STARTCHAR 006C
ENCODING 108
SWIDTH 720 0
DWIDTH 5 0
BBX 4 6 0 0
BITMAP
80
80
80
80
F0
F0
ENDCHAR
STARTCHAR 006D
ENCODING 109
SWIDTH 720 0
DWIDTH 5 0
BBX 4 6 0 0
BITMAP
90
F0
F0
F0
90
90
ENDCHAR
STARTCHAR 006E
ENCODING 110
SWIDTH 720 0
DWIDTH 5 0
BBX 4 6 0 0
BITMAP
F0
F0
90
90
90
90
ENDCHAR
STARTCHAR 006F
ENCODING 111
SWIDTH 720 0
DWIDTH 5 0
BBX 4 6 0 0
BITMAP
F0
F0
90
90
F0
F0
ENDCHAR
STARTCHAR 0070
ENCODING 112
SWIDTH 720 0
DWIDTH 5 0
BBX 4 6 0 0
BITMAP
F0
F0
90
F0
F0
80
ENDCHAR
STARTCHAR 0071
ENCODING 113
SWIDTH 720 0
DWIDTH 5 0
BBX 4 6 0 0
BITMAP
F0
F0
90
F0
F0
10
ENDCHAR
STARTCHAR 0072
ENCODING 114
SWIDTH 720 0
DWIDTH 5 0
BBX 4 6 0 0
BITMAP
F0
F0
80
80
80
80
ENDCHAR
STARTCHAR 0073
ENCODING 115
SWIDTH 864 0
DWIDTH 6 0
BBX 5 6 0 0
BITMAP
38
38
20
20
E0
E0
ENDCHAR
STARTCHAR 0074
ENCODING 116
SWIDTH 720 0
DWIDTH 5 0
BBX 4 8 0 0
BITMAP
20
20
F0
F0
20
20
20
20
ENDCHAR
STARTCHAR 0075
ENCODING 117
SWIDTH 720 0
DWIDTH 5 0
BBX 4 6 0 0
BITMAP
90
90
90
90
F0
F0
ENDCHAR
STARTCHAR 0076
ENCODING 118
SWIDTH 720 0
DWIDTH 5 0
BBX 4 6 0 0
BITMAP
90
90
90
E0
E0
80
ENDCHAR
STARTCHAR 0077
ENCODING 119
SWIDTH 720 0
DWIDTH 5 0
BBX 4 6 0 0
BITMAP
B0
F0
F0
F0
F0
40
ENDCHAR
STARTCHAR 0078
ENCODING 120
SWIDTH 720 0
DWIDTH 5 0
BBX 4 6 0 0
BITMAP
B0
F0
40
40
B0
B0
ENDCHAR
STARTCHAR 0079
ENCODING 121
SWIDTH 720 0
DWIDTH 5 0
BBX 4 6 0 0
BITMAP
90
F0
F0
10
F0
F0
ENDCHAR
STARTCHAR 007A
ENCODING 122
SWIDTH 720 0
DWIDTH 5 0
BBX 4 6 0 0
BITMAP
E0
F0
10
20
F0
F0
ENDCHAR
STARTCHAR 007B
ENCODING 123
SWIDTH 864 0
DWIDTH 6 0
BBX 5 8 0 0
BITMAP
38
38
20
E0
E0
20
38
38
ENDCHAR
STARTCHAR 007C
ENCODING 124
SWIDTH 864 0
DWIDTH 6 0
BBX 1 8 2 0
BITMAP
80
80
80
80
80
80
80
80
ENDCHAR
STARTCHAR 007D
ENCODING 125
SWIDTH 864 0
DWIDTH 6 0
BBX 4 8 0 0
BITMAP
E0
E0
20
30
30
20
E0
E0
ENDCHAR
STARTCHAR 007E
ENCODING 126
SWIDTH 720 0
DWIDTH 5 0
BBX 4 5 0 1
BITMAP
10
F0
F0
80
80
ENDCHAR
STARTCHAR 00A1
ENCODING 161
SWIDTH 864 0
DWIDTH 6 0
BBX 1 8 2 0
BITMAP
80
80
00
80
80
80
80
80
ENDCHAR
STARTCHAR 00A2
ENCODING 162
SWIDTH 720 0
DWIDTH 5 0
BBX 4 8 0 0
BITMAP
40
40
F0
F0
80
F0
F0
40
ENDCHAR
STARTCHAR 00A3
ENCODING 163
SWIDTH 720 0
DWIDTH 5 0
BBX 4 8 0 0
BITMAP
30
30
20
30
30
20
F0
F0
ENDCHAR
STARTCHAR 00A5
ENCODING 165
SWIDTH 720 0
DWIDTH 5 0
BBX 4 8 0 0
BITMAP
B0
B0
B0
40
40
F0
F0
40
ENDCHAR
STARTCHAR 00A8
ENCODING 168
SWIDTH 720 0
DWIDTH 5 0
BBX 4 2 0 8
BITMAP
90
90
ENDCHAR
STARTCHAR 00B0
ENCODING 176
SWIDTH 720 0
DWIDTH 5 0
BBX 4 5 0 3
BITMAP
F0
F0
90
F0
F0
ENDCHAR
STARTCHAR 00B1
ENCODING 177
SWIDTH 720 0
DWIDTH 5 0
BBX 4 8 0 0
BITMAP
20
20
F0
F0
20
00
F0
F0
ENDCHAR
STARTCHAR 00BF
ENCODING 191
SWIDTH 720 0
DWIDTH 5 0
BBX 3 8 0 0
BITMAP
40
40
00
C0
C0
80
E0
E0
ENDCHAR
STARTCHAR 00D7
ENCODING 215
SWIDTH 720 0
DWIDTH 5 0
BBX 4 5 0 1
BITMAP
B0
F0
40
B0
B0
ENDCHAR
STARTCHAR 00F7
ENCODING 247
SWIDTH 720 0
DWIDTH 5 0
BBX 4 8 0 0
BITMAP
20
20
00
F0
F0
00
20
20
ENDCHAR
STARTCHAR 013D
ENCODING 317
SWIDTH 720 0
DWIDTH 5 0
BBX 4 8 0 0
BITMAP
90
90
90
80
80
80
F0
F0
ENDCHAR
STARTCHAR 20A4
ENCODING 8356
SWIDTH 720 0
DWIDTH 5 0
BBX 4 8 0 0
BITMAP
30
30
20
30
30
20
F0
F0
ENDCHAR
STARTCHAR 20AC
ENCODING 8364
SWIDTH 720 0
DWIDTH 5 0
BBX 4 8 0 0
BITMAP
30
30
20
F0
F0
20
30
30
ENDCHAR
STARTCHAR 2103
ENCODING 8451
SWIDTH 720 0
DWIDTH 5 0
BBX 4 7 0 0
BITMAP
80
80
70
60
60
60
70
ENDCHAR
STARTCHAR 2109
ENCODING 8457
SWIDTH 720 0
DWIDTH 5 0
BBX 4 7 0 0
BITMAP
80
80
70
60
70
60
60
ENDCHAR
STARTCHAR 251C
ENCODING 9500
SWIDTH 720 0
DWIDTH 5 0
BBX 4 7 0 0
BITMAP
80
80
80
F0
80
80
80
ENDCHAR
STARTCHAR 2524
ENCODING 9508
SWIDTH 720 0
DWIDTH 5 0
BBX 4 7 0 0
BITMAP
10
10
10
F0
10
10
10
ENDCHAR
STARTCHAR 253C
ENCODING 9532
SWIDTH 720 0
DWIDTH 5 0
BBX 4 7 0 0
BITMAP
60
60
60
F0
60
60
60
ENDCHAR
STARTCHAR 2580
ENCODING 9600
SWIDTH 720 0
DWIDTH 5 0
BBX 4 4 0 3
BITMAP
F0
F0
F0
F0
ENDCHAR
STARTCHAR 2582
ENCODING 9602
SWIDTH 720 0
DWIDTH 5 0
BBX 4 1 0 0
BITMAP
F0
ENDCHAR
STARTCHAR 2583
ENCODING 9603
SWIDTH 720 0
DWIDTH 5 0
BBX 4 3 0 0
BITMAP
F0
F0
F0
ENDCHAR
STARTCHAR 2584
ENCODING 9604
SWIDTH 720 0
DWIDTH 5 0
BBX 4 4 0 0
BITMAP
F0
F0
F0
F0
ENDCHAR
STARTCHAR 2585
ENCODING 9605
SWIDTH 720 0
DWIDTH 5 0
BBX 4 4 0 0
BITMAP
F0
F0
F0
F0
ENDCHAR
STARTCHAR 2586
ENCODING 9606
SWIDTH 720 0
DWIDTH 5 0
BBX 4 6 0 0
BITMAP
F0
F0
F0
F0
F0
F0
ENDCHAR
STARTCHAR 2587
ENCODING 9607
SWIDTH 720 0
DWIDTH 5 0
BBX 4 6 0 0
BITMAP
F0
F0
F0
F0
F0
F0
ENDCHAR
STARTCHAR 2588
ENCODING 9608
SWIDTH 720 0
DWIDTH 5 0
BBX 4 7 0 0
BITMAP
F0
F0
F0
F0
F0
F0
F0
ENDCHAR
STARTCHAR 2589
ENCODING 9609
SWIDTH 720 0
DWIDTH 5 0
BBX 4 7 0 0
BITMAP
F0
F0
F0
F0
F0
F0
F0
ENDCHAR
STARTCHAR 258A
ENCODING 9610
SWIDTH 720 0
DWIDTH 5 0
BBX 3 7 0 0
BITMAP
E0
E0
E0
E0
E0
E0
E0
ENDCHAR
STARTCHAR 258B
ENCODING 9611
SWIDTH 720 0
DWIDTH 5 0
BBX 3 7 0 0
BITMAP
E0
E0
E0
E0
E0
E0
E0
ENDCHAR
STARTCHAR 258C
ENCODING 9612
SWIDTH 720 0
DWIDTH 5 0
BBX 3 7 0 0
BITMAP
E0
E0
E0
E0
E0
E0
E0
ENDCHAR
STARTCHAR 258D
ENCODING 9613
SWIDTH 720 0
DWIDTH 5 0
BBX 1 7 0 0
BITMAP
80
80
80
80
80
80
80
ENDCHAR
STARTCHAR 258E
ENCODING 9614
SWIDTH 720 0
DWIDTH 5 0
BBX 1 7 0 0
BITMAP
80
80
80
80
80
80
80
ENDCHAR
STARTCHAR 258F
ENCODING 9615
SWIDTH 720 0
DWIDTH 5 0
BBX 1 7 0 0
BITMAP
80
80
80
80
80
80
80
ENDCHAR
STARTCHAR 2590
ENCODING 9616
SWIDTH 720 0
DWIDTH 5 0
BBX 3 7 1 0
BITMAP
E0
E0
E0
E0
E0
E0
E0
ENDCHAR
ENDFONT
